#!OML:ASF H:\LiuWeirdWalks\Patient Classification 1\Patient 1\Session 1\male.ASF
:FULLY-SPECIFIED
:DEGREES
498
root 3.72629 17.3588 28.847 2.27317 5.18449 -1.33753
lowerback 14.2526 -0.37985 -9.70563
upperback -3.99065 -1.99523 3.26656
thorax -12.0958 -0.0434602 9.70602
lowerneck -15.7807 1.0426 6.69701
upperneck 24.0014 0.766815 -4.28438
head 10.3196 0.455748 -2.5529
rclavicle 1.34437e-014 -6.55989e-015
rhumerus -49.8878 10.7262 -79.523
rradius 57.8962
rwrist -7.1024
rhand -17.0942 3.70382
rfingers 7.12502
rthumb 9.14448 -26.0779
lclavicle 1.34437e-014 -6.55989e-015
lhumerus -35.5854 -9.10807 83.7957
lradius 49.0487
lwrist 2.22769
lhand -19.3212 -5.81907
lfingers 7.12502
lthumb 6.99513 24.0453
rfemur -23.9885 -21.5136 10.5083
rtibia 83.5105
rfoot -18.1205 -17.0204
rtoes -9.2031
lfemur -11.7046 4.3805 -23.277
ltibia 39.642
lfoot -20.6333 7.53118
ltoes -16.3365
499
root 3.73422 17.4439 29.0152 2.08529 4.70514 -1.63027
lowerback 13.8708 -0.312456 -9.42418
upperback -3.84793 -1.80179 3.33127
thorax -11.7498 -0.00171885 9.54243
lowerneck -16.3396 1.1157 6.69719
upperneck 24.3254 0.852134 -4.34507
head 10.5514 0.487 -2.5722
rclavicle -1.39396e-014 2.82274e-014
rhumerus -50.0906 11.0896 -79.5868
rradius 58.8598
rwrist -6.30058
rhand -16.9011 3.87577
rfingers 7.12502
rthumb 9.33073 -25.8977
lclavicle -1.39396e-014 2.82274e-014
lhumerus -35.8779 -9.01069 83.6112
lradius 49.5653
lwrist 2.39238
lhand -19.6849 -6.0857
lfingers 7.12502
lthumb 6.64403 23.7901
rfemur -24.0412 -21.8325 10.394
rtibia 83.6546
rfoot -17.7904 -16.8198
rtoes -9.14785
lfemur -10.0554 3.95379 -22.9644
ltibia 38.0126
lfoot -19.5813 8.0009
ltoes -16.916
500
root 3.74369 17.5402 29.1868 1.84312 4.19805 -2.14964
lowerback 13.458 -0.280771 -8.981
upperback -3.64075 -1.6134 3.51482
thorax -11.3094 0.0243404 9.41909
lowerneck -16.9896 1.25361 6.75441
upperneck 24.6194 1.03862 -4.52337
head 10.799 0.553794 -2.62964
rclavicle 1.16125e-014 -1.59028e-015
rhumerus -50.1608 11.5393 -79.6205
rradius 59.6897
rwrist -5.76619
rhand -16.7903 4.05586
rfingers 7.12502
rthumb 9.43767 -25.7128
lclavicle 1.16125e-014 -1.59028e-015
lhumerus -36.1507 -8.68726 83.4303
lradius 49.9995
lwrist 2.59499
lhand -19.9053 -6.3041
lfingers 7.12502
lthumb 6.43126 23.5783
rfemur -24.0179 -22.0532 10.5659
rtibia 83.6836
rfoot -17.3381 -16.6947
rtoes -9.00935
lfemur -8.41963 3.4541 -22.4295
ltibia 36.5054
lfoot -18.3176 8.46081
ltoes -17.6859
501
root 3.75445 17.6473 29.3632 1.52596 3.63974 -2.90704
lowerback 13.0399 -0.240835 -8.26308
upperback -3.35994 -1.36437 3.76376
thorax -10.7983 0.0589242 9.19387
lowerneck -17.7724 1.40353 6.80656
upperneck 24.9112 1.24057 -4.71988
head 11.0754 0.622506 -2.69112
rclavicle -4.38006e-014 3.4191e-014
rhumerus -50.1205 11.9112 -79.6193
rradius 60.369
rwrist -5.60015
rhand -16.7627 4.20347
rfingers 7.12502
rthumb 9.46427 -25.564
lclavicle -4.38006e-014 3.4191e-014
lhumerus -36.3557 -8.28731 83.2535
lradius 50.3285
lwrist 2.78903
lhand -19.9856 -6.45985
lfingers 7.12502
lthumb 6.35376 23.4249
rfemur -23.8662 -22.134 11.0304
rtibia 83.58
rfoot -16.7693 -16.6507
rtoes -8.85983
lfemur -6.79043 2.93056 -21.6575
ltibia 35.1678
lfoot -16.8534 8.8911
ltoes -18.6455
502
root 3.76542 17.7637 29.5417 1.15133 3.01704 -3.8574
lowerback 12.5642 -0.218393 -7.46197
upperback -3.09038 -1.12227 4.13105
thorax -10.2652 0.0941768 9.05516
lowerneck -18.1451 1.5651 6.87744
upperneck 25.05 1.4997 -4.9847
head 11.2207 0.711407 -2.76746
rclavicle -1.24687e-014 5.02925e-014
rhumerus -50.1553 12.4233 -79.62
rradius 60.8936
rwrist -5.8525
rhand -16.7954 4.26667
rfingers 7.12502
rthumb 9.43279 -25.5022
lclavicle -1.24687e-014 5.02925e-014
lhumerus -36.7467 -7.67825 83.1263
lradius 50.5693
lwrist 2.96505
lhand -19.9568 -6.55329
lfingers 7.12502
lthumb 6.38156 23.3306
rfemur -23.6166 -22.0444 11.7547
rtibia 83.355
rfoot -16.0961 -16.6733
rtoes -8.63442
lfemur -5.22243 2.40528 -20.6944
ltibia 34.0535
lfoot -15.1781 9.27174
ltoes -19.7921
